<?xml version="1.0" encoding="UTF-8" standalone="no"?>
<!-- Created with Inkscape (http://www.inkscape.org/) -->

<svg
   xmlns:dc="http://purl.org/dc/elements/1.1/"
   xmlns:cc="http://creativecommons.org/ns#"
   xmlns:rdf="http://www.w3.org/1999/02/22-rdf-syntax-ns#"
   xmlns:svg="http://www.w3.org/2000/svg"
   xmlns="http://www.w3.org/2000/svg"
   xmlns:sodipodi="http://sodipodi.sourceforge.net/DTD/sodipodi-0.dtd"
   xmlns:inkscape="http://www.inkscape.org/namespaces/inkscape"
   width="48"
   height="48"
   id="svg5453"
   version="1.1"
   inkscape:version="0.48.4 r9939"
   sodipodi:docname="hablamemo-icon-curve-mono.svg"
   inkscape:export-filename="/home/dimitric/Development/hablamemo/package/contents/ui/resource/hablamemo-backard.png"
   inkscape:export-xdpi="1535.7855"
   inkscape:export-ydpi="1535.7855">
  <defs
     id="defs5455" />
  <sodipodi:namedview
     id="base"
     pagecolor="#ffffff"
     bordercolor="#666666"
     borderopacity="1.0"
     inkscape:pageopacity="0"
     inkscape:pageshadow="2"
     inkscape:zoom="8.0000004"
     inkscape:cx="26.135978"
     inkscape:cy="32.291095"
     inkscape:document-units="px"
     inkscape:current-layer="layer1"
     showgrid="true"
     fit-margin-top="0"
     fit-margin-left="0"
     fit-margin-right="0"
     fit-margin-bottom="0"
     inkscape:window-width="1366"
     inkscape:window-height="692"
     inkscape:window-x="-2"
     inkscape:window-y="-3"
     inkscape:window-maximized="1"
     inkscape:showpageshadow="false"
     borderlayer="true"
     showguides="true">
    <inkscape:grid
       type="xygrid"
       id="grid4063" />
    <sodipodi:guide
       position="1.1650391e-05,47.999996"
       orientation="4,0"
       id="guide4146" />
    <sodipodi:guide
       position="1.1650391e-05,43.999996"
       orientation="0,48"
       id="guide4148" />
    <sodipodi:guide
       position="50,20"
       orientation="-4,0"
       id="guide4150" />
    <sodipodi:guide
       position="48.000012,47.999996"
       orientation="0,-48"
       id="guide4152" />
    <sodipodi:guide
       position="1.1650391e-05,4.0000264"
       orientation="4,0"
       id="guide4154" />
    <sodipodi:guide
       position="1.1650391e-05,2.6367188e-05"
       orientation="0,48"
       id="guide4156" />
    <sodipodi:guide
       position="48.000012,2.6367188e-05"
       orientation="-4,0"
       id="guide4158" />
    <sodipodi:guide
       position="48.000012,4.0000264"
       orientation="0,-48"
       id="guide4160" />
    <sodipodi:guide
       position="48.000012,48.000026"
       orientation="0,-4"
       id="guide4162" />
    <sodipodi:guide
       position="48.000012,20"
       orientation="48,0"
       id="guide4164" />
    <sodipodi:guide
       position="44.000012,2.6367188e-05"
       orientation="0,4"
       id="guide4166" />
    <sodipodi:guide
       position="48.000012,2.6367188e-05"
       orientation="-48,0"
       id="guide4168" />
    <sodipodi:guide
       position="4.0000422,48.000026"
       orientation="0,-4"
       id="guide4170" />
    <sodipodi:guide
       position="4.2167969e-05,48.000026"
       orientation="48,0"
       id="guide4172" />
    <sodipodi:guide
       position="4.2167969e-05,2.6367188e-05"
       orientation="0,4"
       id="guide4174" />
    <sodipodi:guide
       position="4.0000422,2.6367188e-05"
       orientation="-48,0"
       id="guide4176" />
    <sodipodi:guide
       position="20.000012,4.0000264"
       orientation="0,8"
       id="guide4155" />
    <sodipodi:guide
       position="29,23"
       orientation="-39.999969,0"
       id="guide4157" />
    <sodipodi:guide
       position="28.000012,43.999996"
       orientation="0,-8"
       id="guide4159" />
  </sodipodi:namedview>
  <metadata
     id="metadata5458">
    <rdf:RDF>
      <cc:Work
         rdf:about="">
        <dc:format>image/svg+xml</dc:format>
        <dc:type
           rdf:resource="http://purl.org/dc/dcmitype/StillImage" />
        <dc:title></dc:title>
      </cc:Work>
    </rdf:RDF>
  </metadata>
  <g
     inkscape:label="Capa 1"
     inkscape:groupmode="layer"
     id="layer1"
     transform="translate(-384.57143,-499.798)">
    <path
       style="fill:#87aade;fill-opacity:1;fill-rule:evenodd;stroke:none"
       d="m 431.57143,520.798 c -5,7 -6.0174,8.32242 -6,8 0.0647,-1.19715 7.77587,-9.53008 3,-5 -1.56849,1.49365 -1.98272,2.0712 -3.34512,2.69793 -0.32429,0.14918 -1.55893,0.75634 -1.16241,0.46891 8.50754,-6.16684 -1.44896,0.50067 -2.49247,0.83316 l 1,1 -5e-5,0 c 0.22921,0.19566 0.44293,0.4006 0.64229,0.61247 0.61276,0.65119 -4.64224,-2.61247 1.46373,2.08205 0.15752,0.12111 0.397,0.65954 0.25817,0.52662 -1.26214,-1.20849 -1.44526,-1.22806 -1.1989,-0.80202 0.41031,0.70953 2.01183,2.65499 1.8042,2.40277 -3.13281,-3.80557 1.22197,1.46887 -0.17869,0.36918 -2.79075,-2.19107 0.17677,0.74398 0.20925,0.80893 1,2 0.56364,1.72605 0.7331,0.73144 0.0613,-0.35995 0.14351,-0.92295 0.26685,-1.73144 1.2354,0.6177 6.93845,-10.70237 4.34572,-7.6067 -1.34567,1.6067 4.03663,-12.6287 3.65433,-13.3933 z m -37,-3 c -3,1 -0.93764,0.67385 -1.41898,0.91056 -0.8306,0.40846 -1.64681,0.93189 -2.24554,3.19529 l -1.33548,1.89415 2.65909,-0.9381 3.34091,-1.0619 4,7 c 0.51416,3.34516 0,8 1,9 0,2 1.61801,2.61326 2,5 l 4,-2 c 0.6097,0.0174 4.12315,-0.23509 3.00034,0.0356 -4.00034,0.9644 3.30096,0.0694 2.24669,0.2279 -2.22099,0.33383 -0.37269,0.34236 2.38027,-0.12493 0.25857,-0.0439 3.10079,-1.08619 3.3727,-1.13857 0.24122,-0.0465 -2.08902,0.89779 -1.8412,0.84442 0.18845,-0.0406 0.37828,-0.0832 0.56869,-0.12788 2.9596,-0.69429 6.05813,-1.88521 6.27251,-3.71653 l 5,5 -2,-4 c 0.0686,-0.79196 -0.0259,-1.96285 -0.58744,-2.95464 -0.073,-0.12896 -0.15394,-0.2549 -0.24342,-0.37658 -4.16895,-5.66893 -0.50529,-0.80827 -0.56791,-1.25262 -0.0676,-0.48 2.45074,1.99384 0.39877,-0.41617 -0.75448,-0.88613 -1.91283,-3.06999 -0.53084,-1.79206 1.23238,1.13958 -2.08879,-2.28733 -2.93154,-2.85625 -0.19912,-0.13442 -3.53762,0.64831 -0.53762,-0.35168 -8,0.99999 -1.11244,-0.24252 -1.95461,-0.1841 -1.55684,0.10801 -3.4633,0.58232 -4.04539,1.18409 l -11,3 c -0.995,-7.69167 -3.33333,-8.66666 -5,-12.99999 l -4,-2.00001 1,1 z"
       id="path4168"
       inkscape:connector-curvature="0"
       sodipodi:nodetypes="cscsscccsssssssscscccsccccccccsssssscccsssssscscccccc" />
    <path
       style="fill:#87aade;fill-opacity:1;fill-rule:evenodd;stroke:none"
       d="m 394.57143,517.798 -1.63085,4.79806 c 0.97231,-0.0515 5.17494,1.79692 2.63085,-0.79806 z"
       id="path4174"
       inkscape:connector-curvature="0"
       sodipodi:nodetypes="cccc" />
    <path
       style="fill:#87aade;fill-opacity:0.78431373;fill-rule:evenodd;stroke:none"
       d="m 404.35072,535.0812 -2.77929,7.7168 c 0.83982,-0.50181 5,-2 4,-1 -0.48878,0.48878 1.63962,-0.63962 2,-1 l 0.14648,0.0137 -1.85937,-5.21094 -0.28711,0.19727 -0.14844,-0.35938 z"
       id="path4176"
       inkscape:connector-curvature="0"
       sodipodi:nodetypes="ccscccccc" />
    <path
       style="fill:#87aade;fill-opacity:0.79607843;fill-rule:evenodd;stroke:none"
       d="m 421.57143,537.798 -5,-7 5.54912,5.92494 5.45088,5.07506 c -6,-3 -1.39279,-0.37856 -1.97392,-0.53461 -8.08634,-2.17145 -1.82139,-0.20733 -3.15809,-0.49539 -16.83331,-3.62758 3.01357,-2.70913 0.23708,-5.19394 l -2.10507,-4.77606 z"
       id="path4191"
       inkscape:connector-curvature="0"
       sodipodi:nodetypes="ccccssccc" />
    <path
       style="fill:#afc6e9;fill-opacity:1;fill-rule:evenodd;stroke:none"
       d="m 402.71007,531.63684 2.86136,1.16116 c 1,0 10.81747,-2.32261 11.13864,-7.16116 0.12376,-1.86435 2.39443,-5.99217 2.20016,-7.74256 -0.0496,-0.447 -1.20016,2.74256 -0.13713,-1.32415 0.10112,-0.38684 1.93697,-4.93329 -0.084,-1.17848 -0.38094,0.70776 4.021,-9.75481 0.0781,-2.32841 -0.98844,1.86171 1.29579,-3.93761 3.94295,-5.4264 -9.00005,6 -3.19946,1.27883 -4.50556,2.04338 -17.00268,9.95283 -10.04089,33.93641 -4.63316,20.11778 1.16622,7.44704 -4.93411,-2.06589 -8,1 -1,1 -4.02948,-1.86561 -2.86128,0.83884 z"
       id="path4170"
       inkscape:connector-curvature="0"
       sodipodi:nodetypes="ccssssscscscc" />
    <path
       style="fill:#87aade;fill-opacity:1;fill-rule:evenodd;stroke:none"
       d="m 396.32879,508.41672 c -0.0808,0.0808 0.84072,0.66986 2.31144,1.64734 0.42345,0.28143 4.41103,5.06823 3.36902,3.4812 -4.68046,-7.12854 8.25228,9.07785 2.10577,0.39482 -1.78623,-2.52336 1.65549,1.59744 2.50658,2.42606 2.54636,2.47911 3.14984,2.3481 4.70718,5.05058 1.9535,3.38991 4.28003,9.64604 1,13 l -6.99999,-1 0,0 c 4.44195,-0.0187 -12.20977,-28.36713 -8.39427,-22.62748 1.82957,2.75222 4.61134,6.73194 3.84035,5.65236 -1.44608,-2.02488 -0.53585,-1.76852 -4.44608,-8.02488 z"
       id="path4180"
       inkscape:connector-curvature="0"
       sodipodi:nodetypes="cssssscccssc" />
  </g>
</svg>
